 http://www.imdb.com/title/tt0482571/

Source: The.Prestige.2006.720p.BluRay.x264-ESiR

Subs: Arabic, Brazilian, Bulgarian, Chinese, Croatian, Czech, Danish, Dutch, English, Finnish, German, Greek, Hungarian, Norwegian, Portuguese, Romanian, Slovenian, Spanish, Swedish, Turkish and Vietnamese.

Sample and Screens included.

General
Complete name                    : The Prestige-720p MP4 AAC x264 BRRip 2006-CC.mp4
Format                           : MPEG-4
Format profile                   : Base Media
Codec ID                         : isom
File size                        : 2.95 GiB
Duration                         : 2h 10mn
Overall bit rate                 : 3 232 Kbps
Encoded date                     : UTC 2012-07-22 15:40:55

Video
ID                               : 1
Format                           : AVC
Format/Info                      : Advanced Video Codec
Format profile                   : High@L3.1
Format settings, CABAC           : Yes
Format settings, ReFrames        : 5 frames
Codec ID                         : avc1
Codec ID/Info                    : Advanced Video Coding
Duration                         : 2h 10mn
Bit rate mode                    : Variable
Bit rate                         : 2 846 Kbps
Nominal bit rate                 : 2 890 Kbps
Maximum bit rate                 : 15.8 Mbps
Width                            : 1 280 pixels
Height                           : 544 pixels
Display aspect ratio             : 2.35:1
Frame rate mode                  : Variable
Frame rate                       : 23.976 fps
Minimum frame rate               : 15.873 fps
Maximum frame rate               : 24.390 fps
Resolution                       : 24 bits
Colorimetry                      : 4:2:0
Scan type                        : Progressive
Bits/(Pixel*Frame)               : 0.170
Stream size                      : 2.59 GiB (88%)
Writing library                  : x264 core 112

Audio
ID                               : 2
Format                           : AAC
Format/Info                      : Advanced Audio Codec
Format version                   : Version 4
Format profile                   : LC
Format settings, SBR             : No
Codec ID                         : 40
Duration                         : 2h 10mn
Bit rate mode                    : Variable
Bit rate                         : 384 Kbps
Maximum bit rate                 : 819 Kbps
Channel(s)                       : 6 channels
Channel positions                : Front: L C R, Rear: L R, LFE
Sampling rate                    : 48.0 KHz
Resolution                       : 16 bits
Stream size                      : 357 MiB (12%)
Language                         : English

Enjoy...

Requested by cmptrluvr's. ( more coming up )